<svg xmlns="http://www.w3.org/2000/svg" width="24" height="24" viewBox="0 0 24 24"><path fill="#5C5C5C" d="M24 12c0-6.617-5.383-12-12-12S0 5.383 0 12c0 2.457.743 4.743 2.015 6.647v.009l.082.12c.072.106.15.206.225.308a12.108 12.108 0 0 0 .384.498l.088.104c.462.554.97 1.062 1.517 1.518l.1.083c.119.097.239.193.362.285.05.038.1.074.15.11.117.086.233.171.353.252.064.044.13.085.196.127.166.108.334.213.505.312.12.07.239.139.361.204.074.04.149.077.223.115a11.884 11.884 0 0 0 1.059.477c.048.019.096.039.145.057.429.163.87.302 1.32.415l.056.013c.2.048.4.092.604.13l.162.03a11.96 11.96 0 0 0 1.214.151c.063.005.126.011.19.015.228.012.457.02.689.02.232 0 .461-.008.69-.021l.189-.015a11.707 11.707 0 0 0 1.214-.15l.162-.03c.203-.039.405-.082.604-.131l.055-.013c.451-.113.892-.252 1.321-.414l.146-.058a12.467 12.467 0 0 0 1.058-.477c.075-.038.15-.075.223-.114a12.292 12.292 0 0 0 .867-.516c.065-.043.131-.083.195-.127.12-.081.236-.166.354-.252l.15-.11c.122-.093.243-.188.362-.285l.1-.083a12.01 12.01 0 0 0 1.896-1.995c.032-.041.061-.083.092-.125.075-.103.153-.202.225-.308l.083-.12-.001-.01A11.927 11.927 0 0 0 24 12zm-.8 0c0 1.989-.524 3.857-1.436 5.478a5.457 5.457 0 0 0-5.24-3.878h-2.378a.146.146 0 0 1-.146-.146v-.258c0-.073.06-.121.11-.14 2.576-.97 4.182-4.986 3.846-7.796a5.974 5.974 0 0 0-1.954-3.718C20.207 3.157 23.2 7.234 23.2 12zm-2.185 6.636a15.729 15.729 0 0 1-.37.477l-.03.035c-.323.388-.672.755-1.044 1.097l-.066.061a11.3 11.3 0 0 1-.787.65l-.118.085c-.066.049-.133.095-.2.142V19.2h-.8v2.493a10.508 10.508 0 0 1-.354.198 11.338 11.338 0 0 1-.58.286c-.06.029-.12.056-.18.083-.154.067-.31.13-.466.191l-.097.038c-.4.15-.809.277-1.225.38l-.09.021c-.173.041-.347.079-.522.112l-.156.028c-.155.027-.311.05-.468.07a11.294 11.294 0 0 1-.65.066l-.174.014a10.6 10.6 0 0 1-1.276 0c-.058-.002-.116-.008-.174-.012a11.357 11.357 0 0 1-.468-.043l-.182-.023c-.156-.021-.312-.045-.468-.072l-.156-.028a10.87 10.87 0 0 1-.521-.112l-.09-.02c-.417-.104-.826-.23-1.226-.38l-.096-.038c-.157-.06-.312-.125-.466-.192a11.338 11.338 0 0 1-.546-.258c-.072-.036-.144-.072-.215-.11-.103-.055-.205-.113-.307-.171-.015-.01-.031-.018-.047-.027V19.2h-.8v1.983a10.498 10.498 0 0 1-.2-.142l-.118-.085a11.502 11.502 0 0 1-.338-.266l-.11-.09a10.726 10.726 0 0 1-.338-.294l-.068-.062a11.268 11.268 0 0 1-1.044-1.096l-.029-.035c-.093-.113-.183-.23-.273-.347l-.097-.13a9.842 9.842 0 0 1-.141-.198A4.659 4.659 0 0 1 7.476 14.4h1.158L12 17.766l3.366-3.366h1.158a4.66 4.66 0 0 1 4.632 4.038c-.046.066-.092.133-.14.198zm-10.819-6.32C8.284 11.61 6.8 8.34 6.8 6c0-.051.006-.101.007-.152l.293-.361c.66-.786 1.788-1.01 2.805-.56.409.181.845.273 1.295.273a3.183 3.183 0 0 0 2.811-1.674c1.273.418 2.409 1.206 3.177 2.2.118 2.44-1.317 5.813-3.359 6.58a.95.95 0 0 0-.629.89v.258c0 .521.425.946.946.946h.088L12 16.634 9.766 14.4h.088a.948.948 0 0 0 .946-.946V13.2a.94.94 0 0 0-.604-.884zM12.016.801h.013c.196.001.388.012.572.033 1.984.221 3.651 1.602 4.301 3.436a7.722 7.722 0 0 0-2.999-1.611l-.344-.095-.133.33A2.39 2.39 0 0 1 11.2 4.4c-.338 0-.665-.069-.97-.204-1.107-.49-2.315-.358-3.208.292A5.175 5.175 0 0 1 8.327 2.32 5.174 5.174 0 0 1 12.016.8zm-4.023.743c-.077.07-.157.135-.231.21A5.96 5.96 0 0 0 6 6c0 2.652 1.676 6.237 3.919 7.066.047.018.081.073.081.134v.254c0 .08-.066.146-.146.146H7.476a5.458 5.458 0 0 0-5.24 3.878A11.129 11.129 0 0 1 .8 12c0-4.764 2.99-8.84 7.193-10.456z"/></svg>