<svg xmlns="http://www.w3.org/2000/svg" width="21" height="21" viewBox="0 0 21 21"><path fill="#CCC" fillRule="evenodd" d="M13.929 18.518c-.375-2.152-1-4.375-1.875-6.67h-.027l-.027.014c-.143.053-.335.127-.576.22-.241.094-.692.313-1.353.657-.66.344-1.272.71-1.834 1.098-.563.388-1.148.9-1.755 1.534-.607.633-1.067 1.294-1.38 1.982l-.2-.148c1.643 1.34 3.509 2.01 5.598 2.01a8.783 8.783 0 0 0 3.429-.697zm-2.478-8.13a23.328 23.328 0 0 0-.71-1.486c-2.777.83-5.781 1.245-9.013 1.245a2.164 2.164 0 0 0-.014.282c0 1.107.197 2.163.59 3.167a8.794 8.794 0 0 0 1.66 2.699c.447-.795.998-1.538 1.654-2.23.657-.692 1.293-1.248 1.909-1.668.616-.42 1.198-.78 1.748-1.085.549-.303.993-.517 1.332-.642l.496-.174.174-.047c.08-.023.138-.043.174-.06zM10.018 7.55C8.946 5.647 7.858 3.96 6.75 2.487a8.668 8.668 0 0 0-3.134 2.49 8.68 8.68 0 0 0-1.714 3.644 31.78 31.78 0 0 0 8.116-1.072zm9.16 4.272c-1.874-.535-3.7-.665-5.477-.388a37.729 37.729 0 0 1 1.714 6.281 8.777 8.777 0 0 0 2.478-2.538 8.661 8.661 0 0 0 1.286-3.355zM8.399 1.897c-.01 0-.019.005-.027.014.008-.01.017-.014.026-.014zm7.901 1.942c-1.652-1.464-3.585-2.196-5.799-2.196-.679 0-1.37.085-2.076.254 1.17 1.518 2.268 3.224 3.295 5.116a12.44 12.44 0 0 0 1.74-.81c.545-.308.976-.582 1.293-.824.317-.24.61-.495.877-.763.268-.268.436-.449.503-.542l.167-.235zm2.987 6.496c-.027-2.072-.692-3.902-1.996-5.491l-.013.013c-.08.107-.165.217-.255.328a7.69 7.69 0 0 1-.582.596c-.3.286-.616.556-.951.81-.335.255-.781.545-1.34.871-.557.326-1.145.614-1.76.864.223.473.419.897.589 1.272.018.045.047.12.087.228.04.107.073.183.1.228.322-.045.654-.076.998-.094a19.005 19.005 0 0 1 1.908-.007 22.053 22.053 0 0 1 2.257.214l.489.08c.134.023.245.043.335.061l.134.027zm1.5.094c0 1.866-.46 3.587-1.38 5.163a10.24 10.24 0 0 1-3.743 3.743c-1.576.92-3.297 1.38-5.163 1.38s-3.587-.46-5.163-1.38a10.24 10.24 0 0 1-3.743-3.743c-.92-1.576-1.38-3.297-1.38-5.163 0-1.867.46-3.587 1.38-5.163a10.24 10.24 0 0 1 3.743-3.744C6.913.602 8.634.142 10.5.142s3.587.46 5.163 1.38a10.24 10.24 0 0 1 3.743 3.744c.92 1.576 1.38 3.296 1.38 5.163z"/></svg>