<svg xmlns="http://www.w3.org/2000/svg" width="21" height="21" viewBox="0 0 21 21"><path fill="#CCC" fill-rule="evenodd" d="M10.5.143c1.866 0 3.587.46 5.163 1.38a10.24 10.24 0 0 1 3.743 3.743c.92 1.576 1.38 3.296 1.38 5.163 0 2.24-.654 4.256-1.962 6.046-1.308 1.79-2.998 3.03-5.07 3.717-.24.045-.42.013-.535-.094a.524.524 0 0 1-.174-.402l.006-1.024c.005-.656.007-1.257.007-1.801 0-.867-.232-1.5-.696-1.902a9.173 9.173 0 0 0 1.372-.241 5.47 5.47 0 0 0 1.26-.523 3.744 3.744 0 0 0 1.084-.89c.29-.353.527-.822.71-1.407.183-.584.274-1.256.274-2.015 0-1.063-.352-1.982-1.058-2.76.33-.812.295-1.722-.107-2.731-.25-.08-.611-.031-1.085.147a7.213 7.213 0 0 0-1.232.59l-.509.32a9.505 9.505 0 0 0-2.571-.347c-.884 0-1.741.116-2.571.348a11.884 11.884 0 0 0-.57-.362c-.236-.143-.609-.315-1.118-.515-.509-.201-.888-.262-1.138-.181-.402 1.009-.438 1.92-.107 2.732-.706.777-1.059 1.696-1.059 2.759 0 .759.092 1.428.275 2.009.183.58.417 1.049.703 1.406s.645.656 1.078.897a5.47 5.47 0 0 0 1.26.523c.405.107.863.187 1.372.24-.348.322-.567.782-.656 1.38-.188.09-.389.156-.603.201a3.79 3.79 0 0 1-.763.067c-.295 0-.587-.096-.878-.288-.29-.192-.537-.47-.743-.837a2.16 2.16 0 0 0-.65-.696c-.263-.179-.484-.286-.662-.322l-.268-.04c-.188 0-.317.02-.389.06-.071.04-.093.092-.067.154a.738.738 0 0 0 .121.188.98.98 0 0 0 .174.16l.094.068c.196.089.39.258.582.508.192.25.333.478.422.683l.134.308c.116.34.313.614.59.824.276.21.575.344.897.402.321.058.632.09.93.094.3.004.547-.011.744-.047l.308-.054c0 .34.002.735.007 1.186l.006.73c0 .16-.058.294-.174.401-.116.107-.294.139-.535.094-2.072-.688-3.762-1.926-5.07-3.717C.868 14.685.214 12.67.214 10.43c0-1.867.46-3.587 1.38-5.163a10.24 10.24 0 0 1 3.743-3.744C6.913.602 8.634.142 10.5.142zM4.112 14.915c-.036.072-.094.08-.175.027-.089-.045-.12-.098-.093-.16.027-.045.085-.054.174-.028.09.045.12.099.094.161zm.415.456c-.054.062-.125.049-.215-.04-.08-.099-.089-.17-.026-.215.053-.054.125-.04.214.04.08.098.09.17.027.215zm.402.602c-.072.054-.148.023-.228-.094-.08-.116-.08-.196 0-.24.08-.063.156-.036.228.08.08.107.08.192 0 .254zm.562.563c-.071.08-.16.067-.268-.04-.116-.099-.134-.183-.053-.255.071-.08.16-.067.268.04.107.098.125.183.053.255zm.763.335c-.035.107-.12.133-.254.08-.152-.036-.21-.103-.174-.201.036-.098.12-.13.254-.094.143.045.201.116.174.215zm.844.067c0 .098-.071.147-.214.147-.152.018-.228-.031-.228-.148 0-.098.072-.147.215-.147.151-.018.227.031.227.148zm.777-.134c.018.089-.045.151-.188.187-.142.036-.223 0-.24-.107-.018-.107.044-.174.187-.201.143-.018.223.022.241.12z"/></svg>