<svg xmlns="http://www.w3.org/2000/svg" width="24" height="24" viewBox="0 0 24 24"><path fill="#CCC" fillRule="evenodd" d="M7.996 5.79V21.5a.954.954 0 0 1-.168.57c-.111.155-.274.234-.489.234a.977.977 0 0 1-.442-.108L.67 19.076a1.139 1.139 0 0 1-.476-.449A1.18 1.18 0 0 1 0 18.004V2.737c0-.179.045-.33.134-.456a.448.448 0 0 1 .388-.187c.125 0 .322.067.59.2l6.843 3.43c.027.026.04.048.04.066zm.857 1.353l7.151 11.598-7.151-3.562V7.143zM24 7.383V21.5a.778.778 0 0 1-.188.542.652.652 0 0 1-.508.208c-.215 0-.425-.058-.63-.174l-5.906-2.947L24 7.384zm-.04-1.606c0 .027-1.145 1.9-3.435 5.618-2.29 3.719-3.632 5.895-4.025 6.53l-5.223-8.492 4.34-7.058c.15-.25.383-.375.695-.375.126 0 .242.027.349.08l7.245 3.616c.036.018.054.045.054.08z"/></svg>