<svg xmlns="http://www.w3.org/2000/svg" width="24" height="24" viewBox="0 0 24 24"><g fill="none"><circle cx="19.646" cy="11.335" r="1" fill="#000"/><circle cx="3.936" cy="11.335" r="1" fill="#000"/><circle cx="5.246" cy="12.644" r="1" fill="#000"/><circle cx="7.864" cy="12.644" r="1" fill="#000"/><circle cx="6.555" cy="13.953" r="1" fill="#000"/><circle cx="9.173" cy="13.953" r="1" fill="#000"/><circle cx="10.482" cy="15.262" r="1" fill="#000"/><circle cx="13.1" cy="15.262" r="1" fill="#000"/><circle cx="14.409" cy="13.953" r="1" fill="#000"/><circle cx="11.791" cy="16.571" r="1" fill="#000"/><circle cx="15.718" cy="12.644" r="1" fill="#000"/><circle cx="18.336" cy="12.644" r="1" fill="#000"/><circle cx="17.027" cy="13.953" r="1" fill="#000"/><path fill="#5C5C5C" d="M19.88 14.311l4.1-2.342-4.214-2.393 4.213-2.407L11.99.36 0 7.17l4.214 2.407L0 11.97l4.214 2.407L0 16.77l11.99 6.85 11.99-6.85-4.214-2.393.031-.017c.03-.012.056-.03.083-.048zM11.99 1.364L22.217 7.17l-3.333 1.904-6.894 3.94L1.763 7.17 11.99 1.364zm-7.134 8.85a.433.433 0 0 0 .691.124l.988.565a.434.434 0 0 0 .02.868c.24 0 .436-.195.436-.436a.425.425 0 0 0-.058-.205l4.508 2.576a.425.425 0 0 0-.086.247.437.437 0 0 0 .872 0c0-.022-.009-.04-.012-.062l4.386-2.506a.431.431 0 0 0 .426.386.437.437 0 0 0 .437-.436.427.427 0 0 0-.177-.342l.96-.55c.03.007.058.019.09.019a.432.432 0 0 0 .409-.303l.14-.08 3.33 1.892-.865.494a.435.435 0 0 0-.832.179.42.42 0 0 0 .087.247l-1.722.984-2.787 1.593a.425.425 0 0 0 .058-.206.437.437 0 0 0-.873 0c0 .234.186.422.418.432l-.988.564a.434.434 0 0 0-.739.313c0 .035.012.066.02.099l-2.003 1.144-2.407-1.376a.432.432 0 0 0-.41-.303c-.032 0-.06.011-.09.018l-.96-.549a.43.43 0 0 0 .178-.342.432.432 0 1 0-.863-.05L3.05 12.708c.003-.021.012-.04.012-.063a.437.437 0 0 0-.436-.436.427.427 0 0 0-.271.102l-.593-.338 3.093-1.757zm17.36 6.557L11.99 22.614 1.763 16.771l3.331-1.891 6.896 3.94 6.895-3.94 3.331 1.891z"/></g></svg>