<svg xmlns="http://www.w3.org/2000/svg" fill="none" viewBox="0 0 123 123">
  <path fill="#FFC9CB" d="M0 0h123v123H0z"/>
  <path fill="#1B1D1C" d="M99.607 42.64c-4.897 1.423-24.139.174-27.004 7.861-5.016 13.448 3.92 39.045 7.572 51.822 1.89 6.592-8.593 8.961-9.592 2.098-1.932-13.284-6.425-22.453-8.047-24.23-.715-.787-1.384-.787-2.087.016-1.618 1.832-6.112 10.97-8.038 24.216-.999 6.861-11.477 4.492-9.593-2.1 3.657-12.777 12.588-38.374 7.576-51.822-2.864-7.687-22.11-6.438-27.003-7.86-5.177-1.503-3.305-9.366 2.58-7.745 10.673 2.932 35.527 2.9 35.527 2.9s24.852.032 35.526-2.902c5.887-1.619 7.76 6.246 2.583 7.747Zm-38.11-28.193a10.118 10.118 0 1 1-.002 20.236 10.118 10.118 0 0 1 .003-20.236h-.002Zm0-14.447C27.534 0 0 27.53 0 61.5 0 95.465 27.535 123 61.5 123c33.967 0 61.5-27.535 61.5-61.5C123 27.533 95.467 0 61.5 0"/>
</svg>
