<svg width="16" height="16" viewBox="0 0 16 16" fill="none" xmlns="http://www.w3.org/2000/svg">
  <style>
    .asterisk {
      fill: hsl(0, 0%, 10%);
    }

    @media (prefers-color-scheme: dark) {
      .asterisk { fill: hsl(0, 0%, 77%); }
    }
  </style>
  <path class="asterisk" d="M8.02187 0C7.63892 0 7.33801 0.136782 7.11922 0.410288C6.84565 0.711192 6.7089 1.14885 6.7089 1.72326C6.7089 1.99682 6.73624 2.32507 6.79097 2.70799C6.84565 2.92681 6.94141 3.28242 7.07816 3.77479C7.26965 4.54069 7.40641 5.14247 7.48848 5.58012C7.56289 6.11791 7.61217 6.65888 7.63618 7.20126C7.26154 6.80346 6.91457 6.37759 6.59493 5.92476C6.34348 5.55728 6.01457 5.01654 5.60837 4.30088C5.37629 3.87539 5.19215 3.55628 5.05674 3.34349C4.86333 3.03407 4.68013 2.79181 4.50603 2.61771C4.09988 2.21157 3.69315 1.99887 3.28698 1.97946C2.91949 1.96015 2.61024 2.07633 2.35877 2.32778C2.088 2.59857 1.97179 2.90782 2.01048 3.25596C2.02982 3.66217 2.24255 4.06886 2.64873 4.47504C2.84217 4.66848 3.09423 4.88118 3.40369 5.11329C3.59713 5.22936 3.91621 5.41256 4.36104 5.66401C5.03804 6.07018 5.56002 6.39912 5.92751 6.65054C6.36047 6.9783 6.77791 7.32607 7.17847 7.69272C6.63219 7.67638 6.08538 7.62095 5.53907 7.52676C5.10144 7.44472 4.48598 7.29428 3.69274 7.07545C3.22772 6.93867 2.87214 6.84294 2.62594 6.78823C2.27036 6.70618 1.96946 6.66513 1.72326 6.66513C1.14888 6.66513 0.711221 6.80191 0.410288 7.07545C0.136782 7.32162 2.91771e-05 7.62252 0 7.9781C0 8.36105 0.136782 8.66196 0.410288 8.88078C0.711221 9.15432 1.14888 9.29107 1.72326 9.29107C1.99682 9.29107 2.32507 9.26373 2.70799 9.20903C2.92681 9.15432 3.28243 9.05859 3.77479 8.92181C4.54069 8.73035 5.14247 8.59356 5.58012 8.51149C6.11791 8.43708 6.65888 8.3878 7.20126 8.3638C6.80109 8.74074 6.37483 9.089 5.92567 9.40597C5.55821 9.65739 5.01654 9.98543 4.30088 10.3916C3.87539 10.6237 3.55628 10.8078 3.34349 10.9432C3.03407 11.1366 2.79184 11.3208 2.61771 11.4948C2.21157 11.901 1.99887 12.3068 1.97946 12.713C1.96015 13.0805 2.07636 13.3898 2.32778 13.6412C2.5986 13.912 2.90782 14.0282 3.25596 13.9895C3.66217 13.9701 4.06887 13.7574 4.47504 13.3512C4.66848 13.1578 4.88118 12.9067 5.11329 12.5972C5.22936 12.4038 5.41259 12.0847 5.66401 11.6398C6.07021 10.9629 6.39912 10.4399 6.65054 10.0725C6.97831 9.63981 7.32608 9.22268 7.69272 8.82243C7.67638 9.36868 7.62095 9.91462 7.52676 10.4609C7.44472 10.8986 7.29428 11.514 7.07545 12.3073C6.9387 12.7723 6.84294 13.1278 6.78823 13.3741C6.70618 13.7296 6.66516 14.0305 6.66513 14.2767C6.66513 14.8511 6.80191 15.2888 7.07545 15.5897C7.32165 15.8632 7.62252 16 7.9781 16C8.36108 16 8.66196 15.8632 8.88078 15.5897C9.15432 15.2888 9.2911 14.8511 9.29107 14.2767C9.29107 14.0031 9.26373 13.6749 9.20903 13.292C9.15432 13.0732 9.05859 12.7175 8.92181 12.2252C8.73035 11.4593 8.59357 10.8575 8.51149 10.4199C8.43739 9.88206 8.38842 9.34109 8.36473 8.79871C8.73936 9.19651 9.08631 9.62238 9.40597 10.0752C9.65739 10.4427 9.98631 10.9834 10.3925 11.6991C10.6246 12.1246 10.8078 12.4446 10.9432 12.6574C11.1367 12.9668 11.3208 13.2082 11.4948 13.3823C11.901 13.7884 12.3068 14.0011 12.713 14.0205C13.0805 14.0398 13.3907 13.9236 13.6421 13.6722C13.9129 13.4014 14.0282 13.0922 13.9895 12.744C13.9701 12.3378 13.7574 11.932 13.3512 11.5259C13.1578 11.3324 12.9067 11.1197 12.5972 10.8876C12.4038 10.7715 12.0847 10.5874 11.6398 10.336C10.9629 9.92979 10.4409 9.60085 10.0734 9.34943C9.64044 9.02166 9.223 8.67389 8.82243 8.30725C9.36868 8.32359 9.91462 8.37903 10.4609 8.47321C10.8986 8.55526 11.514 8.70569 12.3073 8.92455C12.7723 9.0613 13.1279 9.15703 13.3741 9.21174C13.7296 9.29378 14.0305 9.33484 14.2767 9.33487C14.8511 9.33484 15.2888 9.19806 15.5897 8.92455C15.8632 8.67835 16 8.37748 16 8.02187C16 7.63892 15.8632 7.33801 15.5897 7.11922C15.2888 6.84565 14.8511 6.7089 14.2767 6.7089C14.0031 6.7089 13.6749 6.73624 13.292 6.79097C13.0732 6.84565 12.7175 6.94141 12.2252 7.07816C11.4593 7.26965 10.8575 7.40641 10.4199 7.48848C9.88238 7.56287 9.3417 7.61216 8.79961 7.63617C9.1998 7.25924 9.62606 6.91099 10.0752 6.59403C10.4427 6.34258 10.9843 6.01457 11.7 5.60837C12.1255 5.37629 12.4446 5.19215 12.6574 5.05674C12.9668 4.86333 13.2082 4.67919 13.3823 4.50512C13.7884 4.09895 14.0011 3.69315 14.0205 3.28698C14.0398 2.91949 13.9245 2.61024 13.6731 2.35877C13.4023 2.088 13.0922 1.97179 12.744 2.01048C12.3378 2.02982 11.932 2.24255 11.5259 2.64873C11.3324 2.84217 11.1197 3.0933 10.8876 3.40278C10.7715 3.5962 10.5874 3.91528 10.336 4.36014C9.92979 5.03711 9.60085 5.56002 9.34943 5.92751C9.02197 6.36015 8.67451 6.7773 8.30818 7.17757C8.32459 6.6282 8.37974 6.08068 8.47321 5.53907C8.55526 5.10144 8.70569 4.48598 8.92455 3.69274C9.0613 3.22772 9.15703 2.87214 9.21174 2.62594C9.29382 2.27036 9.33484 1.96946 9.33487 1.72326C9.33484 1.14885 9.19806 0.711192 8.92455 0.410288C8.67835 0.136782 8.37748 0 8.02187 0V0Z" fill="#191919"/>
</svg>
