<svg width="256" height="256" viewBox="0 0 256 256" fill="none" xmlns="http://www.w3.org/2000/svg">
<rect width="256" height="256" fill="#072720"/>
<path d="M69.0909 172C62.9545 172 57.7386 169.861 53.4432 165.583C49.1477 161.306 47 156.111 47 150V135.333H69.0909V150H91.1818V84H113.273V150C113.273 156.111 111.125 161.306 106.83 165.583C102.534 169.861 97.3182 172 91.1818 172H69.0909ZM150.091 172C145.918 172 142.42 170.594 139.598 167.783C136.775 164.972 135.364 161.489 135.364 157.333V142.667H157.455V150H186.909V135.333H150.091C145.918 135.333 142.42 133.928 139.598 131.117C136.775 128.306 135.364 124.822 135.364 120.667V98.6667C135.364 94.5111 136.775 91.0278 139.598 88.2167C142.42 85.4056 145.918 84 150.091 84H194.273C198.445 84 201.943 85.4056 204.766 88.2167C207.589 91.0278 209 94.5111 209 98.6667V113.333H186.909V106H157.455V120.667H194.273C198.445 120.667 201.943 122.072 204.766 124.883C207.589 127.694 209 131.178 209 135.333V157.333C209 161.489 207.589 164.972 204.766 167.783C201.943 170.594 198.445 172 194.273 172H150.091Z" fill="#25C2A0"/>
</svg>
