<svg xmlns="http://www.w3.org/2000/svg" fill="none" viewBox="0 0 123 123">
  <path fill="#003C6D" d="M0 0h123v123H0z"/>
  <path fill="#FFB3B3" d="M17.075 63.463v22.484C17.075 92.052 22.023 97 28.127 97h66.316c6.104 0 11.053-4.948 11.053-11.053V37.316c0-6.104-4.949-11.053-11.053-11.053h-39.54l6.63 6.632h32.91a4.421 4.421 0 0 1 4.421 4.42v48.632a4.421 4.421 0 0 1-4.42 4.421H28.126a4.42 4.42 0 0 1-4.42-4.42V70.094l-6.632-6.632Zm17.684-47.147a3.316 3.316 0 1 1 6.631 0v5.594a8.807 8.807 0 0 1 5.461 2.554l15.631 15.631a8.842 8.842 0 0 1 0 12.505L43.725 71.357a8.842 8.842 0 0 1-12.504 0L15.59 55.726a8.842 8.842 0 0 1 0-12.505l18.757-18.757a9.01 9.01 0 0 1 .412-.387v-7.761Zm0 19.895v-2.78L21.984 46.205h36.452a2.202 2.202 0 0 0-.643-1.42l-15.63-15.631a2.202 2.202 0 0 0-.773-.502v7.559a3.316 3.316 0 0 1-6.631 0Zm-12.68 16.626 13.83 13.83a2.211 2.211 0 0 0 3.127 0l13.83-13.83H22.08ZM56.864 67.71c0-2.18.681-4.298 1.511-6.106.843-1.836 1.937-3.562 2.98-5.015a46.029 46.029 0 0 1 2.869-3.587 68.94 68.94 0 0 1 1.324-1.426l.024-.026a3.316 3.316 0 0 1 4.69 0l1.348 1.452c.777.88 1.82 2.126 2.869 3.587 1.043 1.453 2.136 3.179 2.979 5.015.83 1.808 1.511 3.925 1.511 6.106 0 6.148-4.548 11.606-11.052 11.606S56.864 73.858 56.864 67.71Zm9.878-7.253c-.892 1.24-1.732 2.59-2.34 3.913-.62 1.352-.906 2.482-.906 3.34 0 3.057 2.126 4.974 4.42 4.974 2.295 0 4.422-1.917 4.422-4.974 0-.858-.286-1.988-.907-3.34-.608-1.324-1.448-2.672-2.34-3.913a37.269 37.269 0 0 0-1.174-1.547c-.38.474-.778.994-1.175 1.547Z"/>
</svg>
