<?xml version="1.0" standalone="no"?>
<!DOCTYPE svg PUBLIC "-//W3C//DTD SVG 20010904//EN"
 "http://www.w3.org/TR/2001/REC-SVG-20010904/DTD/svg10.dtd">
<svg version="1.0" xmlns="http://www.w3.org/2000/svg"
 width="1024.000000pt" height="1024.000000pt" viewBox="0 0 1024.000000 1024.000000"
 preserveAspectRatio="xMidYMid meet">
<metadata>
Created by potrace 1.11, written by Peter Selinger 2001-2013
</metadata>
<g transform="translate(0.000000,1024.000000) scale(0.100000,-0.100000)"
fill="#000000" stroke="none">
<path d="M4367 9664 c-1 -1 -40 -5 -87 -9 -47 -3 -96 -7 -110 -9 -14 -2 -50
-7 -80 -10 -219 -26 -562 -116 -766 -200 -55 -23 -65 -37 -11 -17 13 5 37 12
53 15 16 2 40 7 54 11 14 3 40 8 59 11 18 3 43 7 54 10 12 2 39 6 62 9 22 4
51 8 65 10 180 27 649 27 791 0 12 -2 40 -6 63 -9 39 -5 249 -46 253 -49 1 -1
-125 -2 -280 -2 -243 0 -385 -6 -512 -20 -16 -2 -57 -6 -90 -9 -33 -3 -69 -8
-81 -10 -12 -2 -43 -7 -70 -10 -92 -12 -149 -20 -203 -31 -9 -1 -56 -10 -106
-20 -49 -9 -146 -30 -215 -46 -69 -17 -132 -32 -140 -34 -111 -24 -459 -140
-650 -217 -165 -67 -440 -200 -568 -277 -57 -33 -106 -61 -108 -61 -5 0 -102
-64 -121 -80 -7 -5 -17 -10 -23 -10 -5 0 -10 -4 -10 -10 0 -5 -5 -10 -10 -10
-17 0 -256 -177 -385 -285 -112 -94 -341 -315 -430 -415 -178 -202 -327 -400
-454 -605 -34 -55 -66 -107 -71 -115 -42 -66 -146 -265 -205 -390 l-35 -75 32
35 c18 20 53 58 78 85 25 28 83 93 130 145 164 182 370 385 433 428 66 44 113
56 140 33 12 -10 7 -30 -35 -129 -155 -364 -269 -723 -372 -1173 -8 -37 -17
-78 -20 -90 -2 -13 -13 -69 -25 -124 -11 -55 -23 -116 -26 -135 -3 -19 -10
-57 -15 -85 -5 -27 -12 -68 -15 -90 -5 -36 -10 -65 -21 -129 -3 -17 -9 -63
-30 -221 -3 -22 -7 -51 -9 -65 -2 -14 -6 -54 -10 -90 -4 -36 -8 -76 -10 -90
-4 -30 -13 -123 -20 -200 -3 -30 -7 -80 -10 -110 -8 -93 -20 -270 -31 -485 -3
-49 -7 -315 -9 -590 -2 -396 0 -520 11 -594 30 -199 64 -285 148 -372 79 -82
87 -98 72 -134 -7 -16 -31 -52 -53 -80 -76 -97 -170 -308 -203 -460 -13 -55
-15 -170 -6 -225 57 -321 391 -569 929 -691 l79 -17 -20 21 c-64 70 -81 92
-110 140 -32 53 -67 137 -78 187 -3 14 -7 61 -9 105 -3 72 0 103 19 194 3 14
21 58 40 98 l35 74 68 -4 c95 -5 181 -52 295 -159 22 -21 42 -38 45 -38 2 0 2
12 -1 28 -3 15 -8 52 -11 83 -3 31 -7 65 -9 75 -2 11 -7 48 -10 84 -4 36 -9
76 -11 90 -2 14 -7 54 -11 90 -3 36 -7 72 -9 80 -2 8 -6 58 -10 110 -4 52 -9
111 -11 130 -7 78 -4 330 6 399 9 67 44 170 54 160 2 -2 7 -21 10 -42 3 -22
10 -58 16 -80 59 -261 78 -322 134 -437 71 -147 231 -285 419 -362 68 -28 273
-91 327 -102 14 -3 50 -10 80 -16 30 -6 71 -13 90 -16 19 -3 46 -7 60 -10 146
-26 804 -26 882 1 7 2 36 6 63 9 160 17 481 111 651 192 330 156 625 640 785
1284 17 68 35 133 41 143 5 11 31 29 56 40 41 19 65 22 187 22 124 0 145 -3
180 -22 67 -35 82 -59 109 -174 85 -360 257 -754 430 -982 128 -168 252 -271
408 -335 211 -88 416 -144 643 -177 22 -4 50 -8 62 -10 108 -18 505 -24 691
-10 98 7 111 8 192 19 42 6 56 9 120 21 14 3 36 7 50 10 31 6 269 71 292 80
14 5 16 2 13 -22 -2 -15 -6 -59 -10 -98 -3 -38 -8 -86 -11 -105 -5 -38 -9 -91
-19 -210 -3 -41 -10 -91 -15 -110 -5 -19 -12 -53 -15 -75 -3 -22 -8 -46 -11
-54 -9 -28 -19 -158 -18 -247 1 -104 15 -170 56 -269 50 -120 69 -178 75 -236
5 -55 7 -57 42 -67 147 -44 341 -55 503 -28 20 3 65 16 100 30 199 75 353 194
466 361 26 39 49 72 52 75 3 3 29 42 58 86 64 102 139 245 179 346 l31 77 -36
-2 c-108 -3 -195 41 -236 121 -38 73 -67 242 -43 242 7 0 17 -4 22 -9 20 -19
178 -82 252 -101 100 -25 202 -21 262 9 69 36 132 113 146 179 2 9 8 37 14 62
13 56 8 278 -9 345 -6 28 -23 71 -36 97 -73 140 -86 231 -68 473 16 210 8
1252 -11 1465 -2 25 -7 88 -10 140 -4 52 -8 111 -10 130 -2 19 -7 67 -10 105
-3 39 -8 81 -10 95 -2 14 -7 54 -10 90 -4 36 -8 76 -10 90 -2 14 -9 63 -15
110 -6 47 -13 101 -16 120 -6 38 -31 192 -38 226 -2 12 -7 38 -10 58 -11 65
-37 187 -67 316 -17 69 -32 133 -34 143 -2 10 -7 27 -10 37 -3 10 -8 28 -10
40 -2 11 -27 96 -54 188 -254 847 -661 1472 -1189 1825 -187 125 -435 228
-626 260 l-80 13 50 30 c55 34 226 118 321 158 145 60 213 82 528 170 22 6
-59 -1 -115 -10 -345 -55 -686 -166 -989 -320 -68 -35 -128 -61 -132 -58 -5 3
-9 18 -9 34 0 16 -7 59 -16 97 -9 37 -17 75 -19 83 -8 38 -60 162 -96 230
-112 206 -304 390 -513 490 -69 33 -194 76 -246 85 -19 3 -52 10 -72 14 -21 5
-38 8 -38 6 0 -2 34 -19 75 -38 99 -47 156 -88 235 -167 92 -90 156 -191 196
-303 17 -48 12 -57 -19 -30 -34 30 -209 143 -343 220 -319 186 -677 342 -1013
443 -232 70 -442 116 -661 145 -171 22 -246 27 -458 29 -106 1 -193 1 -195 0z
m2357 -4164 c36 -114 34 -194 -9 -405 -9 -44 -28 -129 -42 -190 -33 -144 -30
-135 -42 -172 -13 -44 -3 -43 110 14 229 114 405 260 563 466 58 76 139 212
171 287 10 25 22 49 25 53 9 11 67 -129 84 -201 13 -59 14 -172 1 -252 -12
-81 -66 -233 -126 -359 -33 -68 -58 -126 -56 -128 2 -2 41 15 86 38 91 45 151
108 172 179 7 22 15 38 18 35 8 -4 13 -86 15 -224 l1 -94 -215 -4 c-118 -2
-237 -5 -265 -7 -56 -4 -270 -14 -451 -22 -66 -2 -131 -6 -145 -9 -13 -2 -46
-6 -74 -10 -27 -4 -63 -8 -80 -10 -61 -9 -254 -54 -336 -80 -139 -44 -177 -60
-352 -144 -258 -124 -456 -184 -592 -180 -78 3 -198 30 -310 69 -93 33 -295
125 -295 134 0 3 33 24 73 47 306 179 621 414 828 619 165 163 233 249 309
390 33 61 38 65 74 68 21 2 52 -2 68 -9 133 -55 37 -402 -261 -938 -23 -41
-41 -75 -41 -76 0 -5 135 33 185 53 513 197 801 491 870 887 7 42 7 243 0 255
-3 6 -3 10 2 10 4 0 21 -41 37 -90z m950 -1290 c-34 -207 -65 -342 -110 -479
-13 -40 -24 -76 -24 -78 0 -3 22 13 48 35 138 116 301 312 384 463 l43 79 55
-6 c93 -11 96 -13 99 -86 1 -34 4 -79 6 -98 6 -50 5 -371 0 -460 -15 -231 -14
-219 -41 -410 -8 -58 -17 -112 -19 -120 -2 -8 -6 -32 -10 -53 -18 -124 -110
-433 -166 -556 -16 -35 -27 -66 -25 -68 3 -3 22 14 43 38 21 23 49 54 63 69
43 47 183 219 217 268 84 119 131 190 153 230 26 46 45 53 56 20 7 -24 8 -277
0 -324 -2 -16 -7 -74 -11 -128 -7 -96 -23 -145 -49 -146 -6 0 -19 -9 -30 -19
-44 -41 -298 -146 -401 -165 -11 -2 -31 -7 -45 -10 -14 -3 -36 -8 -50 -10 -14
-2 -36 -7 -50 -10 -151 -34 -536 -40 -725 -11 -449 70 -777 246 -948 510 -99
155 -214 411 -261 585 -45 167 -55 244 -51 400 4 202 33 254 181 332 155 81
414 150 689 183 28 4 61 8 74 10 12 2 60 7 105 10 44 3 90 8 101 10 19 4 135
9 430 20 76 3 140 7 141 8 1 1 32 2 68 2 l66 1 -6 -36z m-3376 -157 c193 -77
260 -141 282 -273 12 -71 9 -227 -6 -320 -34 -219 -139 -495 -275 -725 -119
-202 -302 -348 -564 -449 -82 -31 -245 -78 -320 -91 -250 -42 -554 -49 -755
-15 -30 5 -71 12 -90 15 -103 16 -336 88 -415 127 -152 77 -290 224 -372 399
-29 62 -77 201 -87 251 -2 13 -9 43 -15 68 -5 25 -7 48 -3 51 4 4 95 35 202
69 857 271 1693 599 2215 868 55 28 108 52 118 52 10 0 49 -12 85 -27z"/>
<path d="M1464 940 c-22 -10 -52 -32 -69 -50 -76 -81 -213 -110 -410 -86 -65
8 -206 41 -243 56 -26 11 -26 11 18 -55 14 -22 45 -80 69 -129 69 -140 121
-178 245 -177 123 0 337 56 468 122 129 64 196 111 200 139 9 57 -43 145 -104
176 -46 24 -127 26 -174 4z"/>
</g>
</svg>
