<svg xmlns="http://www.w3.org/2000/svg" width="1365.333" height="1365.333" version="1" viewBox="0 0 1024 1024"><path d="M436.7 57.6c-.1.1-4 .5-8.7.9-4.7.3-9.6.7-11 .9-1.4.2-5 .7-8 1-21.9 2.6-56.2 11.6-76.6 20-5.5 2.3-6.5 3.7-1.1 1.7 1.3-.5 3.7-1.2 5.3-1.5 1.6-.2 4-.7 5.4-1.1 1.4-.3 4-.8 5.9-1.1 1.8-.3 4.3-.7 5.4-1 1.2-.2 3.9-.6 6.2-.9 2.2-.4 5.1-.8 6.5-1 18-2.7 64.9-2.7 79.1 0 1.2.2 4 .6 6.3.9 3.9.5 24.9 4.6 25.3 4.9.1.1-12.5.2-28 .2-24.3 0-38.5.6-51.2 2-1.6.2-5.7.6-9 .9-3.3.3-6.9.8-8.1 1-1.2.2-4.3.7-7 1-9.2 1.2-14.9 2-20.3 3.1-.9.1-5.6 1-10.6 2-4.9.9-14.6 3-21.5 4.6-6.9 1.7-13.2 3.2-14 3.4-11.1 2.4-45.9 14-65 21.7-16.5 6.7-44 20-56.8 27.7-5.7 3.3-10.6 6.1-10.8 6.1-.5 0-10.2 6.4-12.1 8-.7.5-1.7 1-2.3 1-.5 0-1 .4-1 1 0 .5-.5 1-1 1-1.7 0-25.6 17.7-38.5 28.5-11.2 9.4-34.1 31.5-43 41.5-17.8 20.2-32.7 40-45.4 60.5-3.4 5.5-6.6 10.7-7.1 11.5-4.2 6.6-14.6 26.5-20.5 39L0 354.5l3.2-3.5c1.8-2 5.3-5.8 7.8-8.5 2.5-2.8 8.3-9.3 13-14.5 16.4-18.2 37-38.5 43.3-42.8 6.6-4.4 11.3-5.6 14-3.3 1.2 1 .7 3-3.5 12.9-15.5 36.4-26.9 72.3-37.2 117.3-.8 3.7-1.7 7.8-2 9-.2 1.3-1.3 6.9-2.5 12.4-1.1 5.5-2.3 11.6-2.6 13.5-.3 1.9-1 5.7-1.5 8.5-.5 2.7-1.2 6.8-1.5 9-.5 3.6-1 6.5-2.1 12.9-.3 1.7-.9 6.3-3 22.1-.3 2.2-.7 5.1-.9 6.5-.2 1.4-.6 5.4-1 9-.4 3.6-.8 7.6-1 9-.4 3-1.3 12.3-2 20-.3 3-.7 8-1 11-.8 9.3-2 27-3.1 48.5-.3 4.9-.7 31.5-.9 59-.2 39.6 0 52 1.1 59.4 3 19.9 6.4 28.5 14.8 37.2 7.9 8.2 8.7 9.8 7.2 13.4-.7 1.6-3.1 5.2-5.3 8-7.6 9.7-17 30.8-20.3 46-1.3 5.5-1.5 17-.6 22.5 5.7 32.1 39.1 56.9 92.9 69.1l7.9 1.7-2-2.1c-6.4-7-8.1-9.2-11-14-3.2-5.3-6.7-13.7-7.8-18.7-.3-1.4-.7-6.1-.9-10.5-.3-7.2 0-10.3 1.9-19.4.3-1.4 2.1-5.8 4-9.8l3.5-7.4 6.8.4c9.5.5 18.1 5.2 29.5 15.9 2.2 2.1 4.2 3.8 4.5 3.8.2 0 .2-1.2-.1-2.8-.3-1.5-.8-5.2-1.1-8.3-.3-3.1-.7-6.5-.9-7.5-.2-1.1-.7-4.8-1-8.4-.4-3.6-.9-7.6-1.1-9-.2-1.4-.7-5.4-1.1-9-.3-3.6-.7-7.2-.9-8-.2-.8-.6-5.8-1-11s-.9-11.1-1.1-13c-.7-7.8-.4-33 .6-39.9.9-6.7 4.4-17 5.4-16 .2.2.7 2.1 1 4.2.3 2.2 1 5.8 1.6 8 5.9 26.1 7.8 32.2 13.4 43.7 7.1 14.7 23.1 28.5 41.9 36.2 6.8 2.8 27.3 9.1 32.7 10.2 1.4.3 5 1 8 1.6 3 .6 7.1 1.3 9 1.6 1.9.3 4.6.7 6 1 14.6 2.6 80.4 2.6 88.2-.1.7-.2 3.6-.6 6.3-.9 16-1.7 48.1-11.1 65.1-19.2 33-15.6 62.5-64 78.5-128.4 1.7-6.8 3.5-13.3 4.1-14.3.5-1.1 3.1-2.9 5.6-4 4.1-1.9 6.5-2.2 18.7-2.2 12.4 0 14.5.3 18 2.2 6.7 3.5 8.2 5.9 10.9 17.4 8.5 36 25.7 75.4 43 98.2 12.8 16.8 25.2 27.1 40.8 33.5 21.1 8.8 41.6 14.4 64.3 17.7 2.2.4 5 .8 6.2 1 10.8 1.8 50.5 2.4 69.1 1 9.8-.7 11.1-.8 19.2-1.9 4.2-.6 5.6-.9 12-2.1 1.4-.3 3.6-.7 5-1 3.1-.6 26.9-7.1 29.2-8 1.4-.5 1.6-.2 1.3 2.2-.2 1.5-.6 5.9-1 9.8-.3 3.8-.8 8.6-1.1 10.5-.5 3.8-.9 9.1-1.9 21-.3 4.1-1 9.1-1.5 11-.5 1.9-1.2 5.3-1.5 7.5-.3 2.2-.8 4.6-1.1 5.4-.9 2.8-1.9 15.8-1.8 24.7.1 10.4 1.5 17 5.6 26.9 5 12 6.9 17.8 7.5 23.6.5 5.5.7 5.7 4.2 6.7 14.7 4.4 34.1 5.5 50.3 2.8 2-.3 6.5-1.6 10-3 19.9-7.5 35.3-19.4 46.6-36.1 2.6-3.9 4.9-7.2 5.2-7.5.3-.3 2.9-4.2 5.8-8.6 6.4-10.2 13.9-24.5 17.9-34.6l3.1-7.7-3.6.2c-10.8.3-19.5-4.1-23.6-12.1-3.8-7.3-6.7-24.2-4.3-24.2.7 0 1.7.4 2.2.9 2 1.9 17.8 8.2 25.2 10.1 10 2.5 20.2 2.1 26.2-.9 6.9-3.6 13.2-11.3 14.6-17.9.2-.9.8-3.7 1.4-6.2 1.3-5.6.8-27.8-.9-34.5-.6-2.8-2.3-7.1-3.6-9.7-7.3-14-8.6-23.1-6.8-47.3 1.6-21 .8-125.2-1.1-146.5-.2-2.5-.7-8.8-1-14-.4-5.2-.8-11.1-1-13-.2-1.9-.7-6.7-1-10.5-.3-3.9-.8-8.1-1-9.5-.2-1.4-.7-5.4-1-9-.4-3.6-.8-7.6-1-9-.2-1.4-.9-6.3-1.5-11s-1.3-10.1-1.6-12c-.6-3.8-3.1-19.2-3.8-22.6-.2-1.2-.7-3.8-1-5.8-1.1-6.5-3.7-18.7-6.7-31.6-1.7-6.9-3.2-13.3-3.4-14.3-.2-1-.7-2.7-1-3.7-.3-1-.8-2.8-1-4-.2-1.1-2.7-9.6-5.4-18.8C953.7 313.5 913 251 860.2 215.7c-18.7-12.5-43.5-22.8-62.6-26l-8-1.3 5-3c5.5-3.4 22.6-11.8 32.1-15.8 14.5-6 21.3-8.2 52.8-17 2.2-.6-5.9.1-11.5 1-34.5 5.5-68.6 16.6-98.9 32-6.8 3.5-12.8 6.1-13.2 5.8-.5-.3-.9-1.8-.9-3.4 0-1.6-.7-5.9-1.6-9.7-.9-3.7-1.7-7.5-1.9-8.3-.8-3.8-6-16.2-9.6-23-11.2-20.6-30.4-39-51.3-49-6.9-3.3-19.4-7.6-24.6-8.5-1.9-.3-5.2-1-7.2-1.4-2.1-.5-3.8-.8-3.8-.6 0 .2 3.4 1.9 7.5 3.8 9.9 4.7 15.6 8.8 23.5 16.7 9.2 9 15.6 19.1 19.6 30.3 1.7 4.8 1.2 5.7-1.9 3-3.4-3-20.9-14.3-34.3-22-31.9-18.6-67.7-34.2-101.3-44.3-23.2-7-44.2-11.6-66.1-14.5-17.1-2.2-24.6-2.7-45.8-2.9-10.6-.1-19.3-.1-19.5 0zM672.4 474c3.6 11.4 3.4 19.4-.9 40.5-.9 4.4-2.8 12.9-4.2 19-3.3 14.4-3 13.5-4.2 17.2-1.3 4.4-.3 4.3 11-1.4 22.9-11.4 40.5-26 56.3-46.6 5.8-7.6 13.9-21.2 17.1-28.7 1-2.5 2.2-4.9 2.5-5.3.9-1.1 6.7 12.9 8.4 20.1 1.3 5.9 1.4 17.2.1 25.2-1.2 8.1-6.6 23.3-12.6 35.9-3.3 6.8-5.8 12.6-5.6 12.8.2.2 4.1-1.5 8.6-3.8 9.1-4.5 15.1-10.8 17.2-17.9.7-2.2 1.5-3.8 1.8-3.5.8.4 1.3 8.6 1.5 22.4l.1 9.4-21.5.4c-11.8.2-23.7.5-26.5.7-5.6.4-27 1.4-45.1 2.2-6.6.2-13.1.6-14.5.9-1.3.2-4.6.6-7.4 1-2.7.4-6.3.8-8 1-6.1.9-25.4 5.4-33.6 8-13.9 4.4-17.7 6-35.2 14.4-25.8 12.4-45.6 18.4-59.2 18-7.8-.3-19.8-3-31-6.9-9.3-3.3-29.5-12.5-29.5-13.4 0-.3 3.3-2.4 7.3-4.7 30.6-17.9 62.1-41.4 82.8-61.9 16.5-16.3 23.3-24.9 30.9-39 3.3-6.1 3.8-6.5 7.4-6.8 2.1-.2 5.2.2 6.8.9 13.3 5.5 3.7 40.2-26.1 93.8-2.3 4.1-4.1 7.5-4.1 7.6 0 .5 13.5-3.3 18.5-5.3 51.3-19.7 80.1-49.1 87-88.7.7-4.2.7-24.3 0-25.5-.3-.6-.3-1 .2-1 .4 0 2.1 4.1 3.7 9zm95 129c-3.4 20.7-6.5 34.2-11 47.9-1.3 4-2.4 7.6-2.4 7.8 0 .3 2.2-1.3 4.8-3.5 13.8-11.6 30.1-31.2 38.4-46.3l4.3-7.9 5.5.6c9.3 1.1 9.6 1.3 9.9 8.6.1 3.4.4 7.9.6 9.8.6 5 .5 37.1 0 46-1.5 23.1-1.4 21.9-4.1 41-.8 5.8-1.7 11.2-1.9 12-.2.8-.6 3.2-1 5.3-1.8 12.4-11 43.3-16.6 55.6-1.6 3.5-2.7 6.6-2.5 6.8.3.3 2.2-1.4 4.3-3.8 2.1-2.3 4.9-5.4 6.3-6.9 4.3-4.7 18.3-21.9 21.7-26.8 8.4-11.9 13.1-19 15.3-23 2.6-4.6 4.5-5.3 5.6-2 .7 2.4.8 27.7 0 32.4-.2 1.6-.7 7.4-1.1 12.8-.7 9.6-2.3 14.5-4.9 14.6-.6 0-1.9.9-3 1.9-4.4 4.1-29.8 14.6-40.1 16.5-1.1.2-3.1.7-4.5 1-1.4.3-3.6.8-5 1-1.4.2-3.6.7-5 1-15.1 3.4-53.6 4-72.5 1.1-44.9-7-77.7-24.6-94.8-51-9.9-15.5-21.4-41.1-26.1-58.5-4.5-16.7-5.5-24.4-5.1-40 .4-20.2 3.3-25.4 18.1-33.2 15.5-8.1 41.4-15 68.9-18.3 2.8-.4 6.1-.8 7.4-1 1.2-.2 6-.7 10.5-1 4.4-.3 9-.8 10.1-1 1.9-.4 13.5-.9 43-2 7.6-.3 14-.7 14.1-.8.1-.1 3.2-.2 6.8-.2l6.6-.1-.6 3.6zm-337.6 15.7c19.3 7.7 26 14.1 28.2 27.3 1.2 7.1.9 22.7-.6 32-3.4 21.9-13.9 49.5-27.5 72.5-11.9 20.2-30.2 34.8-56.4 44.9-8.2 3.1-24.5 7.8-32 9.1-25 4.2-55.4 4.9-75.5 1.5-3-.5-7.1-1.2-9-1.5-10.3-1.6-33.6-8.8-41.5-12.7-15.2-7.7-29-22.4-37.2-39.9-2.9-6.2-7.7-20.1-8.7-25.1-.2-1.3-.9-4.3-1.5-6.8-.5-2.5-.7-4.8-.3-5.1.4-.4 9.5-3.5 20.2-6.9 85.7-27.1 169.3-59.9 221.5-86.8 5.5-2.8 10.8-5.2 11.8-5.2s4.9 1.2 8.5 2.7zM146.4 930c-2.2 1-5.2 3.2-6.9 5-7.6 8.1-21.3 11-41 8.6-6.5-.8-20.6-4.1-24.3-5.6-2.6-1.1-2.6-1.1 1.8 5.5 1.4 2.2 4.5 8 6.9 12.9 6.9 14 12.1 17.8 24.5 17.7 12.3 0 33.7-5.6 46.8-12.2 12.9-6.4 19.6-11.1 20-13.9.9-5.7-4.3-14.5-10.4-17.6-4.6-2.4-12.7-2.6-17.4-.4z"/></svg>